<svg width="12" height="12" viewBox="0 0 12 12" fill="none" xmlns="http://www.w3.org/2000/svg">
<path d="M3.54999 0.166748H8.44999C10.3167 0.166748 11.8333 1.68341 11.8333 3.55008V8.45008C11.8333 9.3474 11.4769 10.208 10.8424 10.8425C10.2079 11.477 9.34731 11.8334 8.44999 11.8334H3.54999C1.68332 11.8334 0.166656 10.3167 0.166656 8.45008V3.55008C0.166656 2.65277 0.523114 1.7922 1.15761 1.1577C1.79211 0.523205 2.65267 0.166748 3.54999 0.166748ZM3.43332 1.33341C2.87637 1.33341 2.34223 1.55466 1.9484 1.94849C1.55457 2.34232 1.33332 2.87646 1.33332 3.43341V8.56675C1.33332 9.72758 2.27249 10.6667 3.43332 10.6667H8.56666C9.12361 10.6667 9.65775 10.4455 10.0516 10.0517C10.4454 9.65785 10.6667 9.1237 10.6667 8.56675V3.43341C10.6667 2.27258 9.72749 1.33341 8.56666 1.33341H3.43332ZM9.06249 2.20841C9.25588 2.20841 9.44134 2.28524 9.57809 2.42198C9.71483 2.55873 9.79166 2.74419 9.79166 2.93758C9.79166 3.13097 9.71483 3.31643 9.57809 3.45318C9.44134 3.58993 9.25588 3.66675 9.06249 3.66675C8.8691 3.66675 8.68364 3.58993 8.54689 3.45318C8.41014 3.31643 8.33332 3.13097 8.33332 2.93758C8.33332 2.74419 8.41014 2.55873 8.54689 2.42198C8.68364 2.28524 8.8691 2.20841 9.06249 2.20841ZM5.99999 3.08341C6.77354 3.08341 7.5154 3.39071 8.06238 3.93769C8.60937 4.48467 8.91666 5.22653 8.91666 6.00008C8.91666 6.77363 8.60937 7.51549 8.06238 8.06248C7.5154 8.60946 6.77354 8.91675 5.99999 8.91675C5.22644 8.91675 4.48458 8.60946 3.93759 8.06248C3.39061 7.51549 3.08332 6.77363 3.08332 6.00008C3.08332 5.22653 3.39061 4.48467 3.93759 3.93769C4.48458 3.39071 5.22644 3.08341 5.99999 3.08341ZM5.99999 4.25008C5.53586 4.25008 5.09074 4.43446 4.76255 4.76264C4.43436 5.09083 4.24999 5.53595 4.24999 6.00008C4.24999 6.46421 4.43436 6.90933 4.76255 7.23752C5.09074 7.56571 5.53586 7.75008 5.99999 7.75008C6.46412 7.75008 6.90924 7.56571 7.23743 7.23752C7.56562 6.90933 7.74999 6.46421 7.74999 6.00008C7.74999 5.53595 7.56562 5.09083 7.23743 4.76264C6.90924 4.43446 6.46412 4.25008 5.99999 4.25008Z" fill="#313131"/>
</svg>
