<svg width="14" height="11" viewBox="0 0 14 11" fill="none" xmlns="http://www.w3.org/2000/svg">
<path d="M13.1017 1.49992C12.6525 1.70409 12.1683 1.83825 11.6667 1.90242C12.18 1.59325 12.5767 1.10325 12.7633 0.514085C12.2792 0.805752 11.7425 1.00992 11.1767 1.12659C10.7158 0.624919 10.0683 0.333252 9.33335 0.333252C7.96251 0.333252 6.84251 1.45325 6.84251 2.83575C6.84251 3.03409 6.86585 3.22659 6.90668 3.40742C4.83001 3.30242 2.98085 2.30492 1.75001 0.794085C1.53418 1.16159 1.41168 1.59325 1.41168 2.04825C1.41168 2.91742 1.84918 3.68742 2.52585 4.12492C2.11168 4.12492 1.72668 4.00825 1.38835 3.83325V3.85075C1.38835 5.06409 2.25168 6.07909 3.39501 6.30659C3.02794 6.40704 2.64257 6.42102 2.26918 6.34742C2.42762 6.8447 2.73791 7.27982 3.15644 7.59163C3.57497 7.90343 4.08069 8.07624 4.60251 8.08575C3.71796 8.78601 2.62151 9.16452 1.49335 9.15909C1.29501 9.15909 1.09668 9.14742 0.898346 9.12409C2.00668 9.83575 3.32501 10.2499 4.73668 10.2499C9.33335 10.2499 11.8592 6.43492 11.8592 3.12742C11.8592 3.01659 11.8592 2.91159 11.8533 2.80075C12.3433 2.45075 12.7633 2.00742 13.1017 1.49992Z" fill="#313131"/>
</svg>
