<svg width="12" height="10" viewBox="0 0 12 10" fill="none" xmlns="http://www.w3.org/2000/svg">
<path d="M4.83332 6.75008L7.86082 5.00008L4.83332 3.25008V6.75008ZM11.5767 2.18258C11.6525 2.45675 11.705 2.82425 11.74 3.29091C11.7808 3.75758 11.7983 4.16008 11.7983 4.51008L11.8333 5.00008C11.8333 6.27758 11.74 7.21675 11.5767 7.81758C11.4308 8.34258 11.0925 8.68091 10.5675 8.82675C10.2933 8.90258 9.79166 8.95508 9.02166 8.99008C8.26332 9.03092 7.56916 9.04842 6.92749 9.04842L5.99999 9.08342C3.55582 9.08342 2.03332 8.99008 1.43249 8.82675C0.90749 8.68091 0.569157 8.34258 0.423323 7.81758C0.34749 7.54342 0.29499 7.17592 0.25999 6.70925C0.219157 6.24258 0.201656 5.84008 0.201656 5.49008L0.166656 5.00008C0.166656 3.72258 0.25999 2.78341 0.423323 2.18258C0.569157 1.65758 0.90749 1.31925 1.43249 1.17341C1.70666 1.09758 2.20832 1.04508 2.97832 1.01008C3.73666 0.969248 4.43082 0.951748 5.07249 0.951748L5.99999 0.916748C8.44416 0.916748 9.96666 1.01008 10.5675 1.17341C11.0925 1.31925 11.4308 1.65758 11.5767 2.18258Z" fill="#313131"/>
</svg>
